<?xml version="1.0" encoding="UTF-8"?> <svg xmlns="http://www.w3.org/2000/svg" xmlns:xlink="http://www.w3.org/1999/xlink" width="95px" height="62px" viewBox="0 0 95 62" version="1.1"><title>OFLogo</title><g id="Welcome" stroke="none" stroke-width="1" fill="none" fill-rule="evenodd"><g id="HomeIntroText" transform="translate(-123.000000, -28.000000)" fill-rule="nonzero"><g id="OFLogo" transform="translate(123.000000, 28.000000)"><path d="M30.2666605,39.6016282 C25.3029281,39.6016282 21.1866623,35.4691282 21.1866623,30.4858193 C21.1866623,25.5025105 25.3029281,21.3700105 30.2666605,21.3700105 C35.2303928,21.3700105 39.3466586,25.5025105 39.3466586,30.4858193 C39.3466586,32.9167017 38.3781255,35.2260399 36.6831925,36.9276576 C34.9882595,38.6292752 32.6879933,39.6016282 30.2666605,39.6016282 Z M30.2666605,0.099789916 C13.5594639,0.099789916 0,13.7127311 0,30.4858193 C0,47.2589076 13.5594639,60.8718487 30.2666605,60.8718487 C46.973857,60.8718487 60.5333209,47.2589076 60.5333209,30.4858193 C60.5333209,13.7127311 46.973857,0.099789916 30.2666605,0.099789916 Z" id="Shape" fill="#2CADE3"></path><path d="M65.6065897,22.8285399 C73.3548548,25.016334 82.4348529,22.8285399 82.4348529,22.8285399 C79.7713868,34.3752311 71.4177885,41.546334 59.432191,42.518687 C54.710592,53.7007458 43.6935276,60.8718487 31.70793,60.8718487 L40.6668615,31.8228046 C49.9889929,2.0444958 54.8316586,0.099789916 76.9868541,0.099789916 L92.2412509,0.099789916 C89.5777848,11.2818487 80.8609866,19.9114811 65.6065897,22.8285399 Z" id="Path" fill="#138CCD"></path></g></g></g></svg> 